<?xml version="1.0" encoding="UTF-8" standalone="no"?>
<!-- Created with Inkscape (http://www.inkscape.org/) -->

<svg
   xmlns:dc="http://purl.org/dc/elements/1.1/"
   xmlns:cc="http://creativecommons.org/ns#"
   xmlns:rdf="http://www.w3.org/1999/02/22-rdf-syntax-ns#"
   xmlns:svg="http://www.w3.org/2000/svg"
   xmlns="http://www.w3.org/2000/svg"
   xmlns:sodipodi="http://sodipodi.sourceforge.net/DTD/sodipodi-0.dtd"
   xmlns:inkscape="http://www.inkscape.org/namespaces/inkscape"
   width="1000"
   height="500"
   viewBox="0 0 1000 500.00001"
   id="svg2"
   version="1.1"
   inkscape:version="0.91 r13725"
   sodipodi:docname="header_bg.svg">
  <defs
     id="defs4" />
  <sodipodi:namedview
     id="base"
     pagecolor="#ffffff"
     bordercolor="#666666"
     borderopacity="1.0"
     inkscape:pageopacity="0.0"
     inkscape:pageshadow="2"
     inkscape:zoom="0.49497475"
     inkscape:cx="438.3959"
     inkscape:cy="138.01188"
     inkscape:document-units="px"
     inkscape:current-layer="layer1"
     showgrid="false"
     units="px"
     inkscape:window-width="1301"
     inkscape:window-height="744"
     inkscape:window-x="65"
     inkscape:window-y="24"
     inkscape:window-maximized="1" />
  <metadata
     id="metadata7">
    <rdf:RDF>
      <cc:Work
         rdf:about="">
        <dc:format>image/svg+xml</dc:format>
        <dc:type
           rdf:resource="http://purl.org/dc/dcmitype/StillImage" />
        <dc:title></dc:title>
      </cc:Work>
    </rdf:RDF>
  </metadata>
  <g
     inkscape:label="Layer 1"
     inkscape:groupmode="layer"
     id="layer1"
     transform="translate(0,-552.36216)">
    <path
       style="fill:#0077ba;fill-opacity:1"
       d="m 320.4697,1036.3494 c -0.33455,-1.333 -0.45214,-10.3407 -0.26133,-20.0173 l 0.34693,-17.59352 8.70024,-6.56171 8.70024,-6.56168 51.93355,0 c 34.4729,0 52.15639,0.36056 52.59639,1.07249 0.48548,0.78563 0.91638,41.32352 0.54256,51.04282 -0.0262,0.6826 -21.08005,1.0424 -60.99519,1.0424 l -60.95513,0 -0.60826,-2.4235 z m 195.43387,1.1206 c -0.34788,-9.8241 0.11234,-50.07637 0.58124,-50.8351 0.3972,-0.64263 19.83263,-1.01971 52.56377,-1.01971 l 51.93355,0 8.71932,6.57457 8.71936,6.57465 0.29724,17.65909 c 0.16347,9.7125 0.0373,18.7142 -0.28044,20.0041 l -0.57767,2.3453 -60.9551,0 c -48.04464,0 -60.96491,-0.2759 -61.00127,-1.3029 z m 304.68097,0.2042 c -7.17573,-1.4162 -13.41851,-4.6857 -19.10714,-10.0068 -4.46016,-4.1719 -9.31626,-11.1292 -9.31626,-13.3473 0,-0.3094 15.97657,-0.5626 35.5035,-0.5626 l 35.50344,0 -2.86683,5.2674 c -5.0431,9.2658 -14.75077,16.1386 -26.23854,18.5761 -6.16553,1.3081 -7.19307,1.3138 -13.47817,0.073 z m -691.75933,-3.1505 c -3.60969,-4.2899 -3.73872,-11.1021 -0.28633,-15.1157 2.05973,-2.3945 2.73491,-2.6315 4.62186,-1.6216 1.21536,0.6505 4.04148,1.1825 6.28022,1.1825 3.3504,0 4.28442,0.4697 5.28004,2.6548 1.64233,3.6046 1.51981,7.2722 -0.36462,10.9162 -3.21879,6.2245 -11.11427,7.2328 -15.53117,1.9838 z m 32.65986,-0.8822 c -2.45551,-2.4555 -3.04675,-3.9477 -3.04675,-7.6897 0,-2.5536 0.5863,-5.108 1.30287,-5.6763 1.95945,-1.5542 11.97591,-3.6818 13.34631,-2.8348 2.05079,1.2675 4.1144,7.5119 3.49756,10.5837 -1.65814,8.2575 -9.53096,11.1862 -15.09999,5.6171 z m -29.25009,-22.5142 c -6.43281,-2.0419 -15.15029,-9.9889 -18.24343,-16.63131 -2.96957,-6.37708 -3.32606,-17.08984 -0.78042,-23.45199 l 1.67663,-4.19032 35.81966,0 35.81965,0 1.7274,3.34039 c 0.95005,1.83722 1.94677,6.17587 2.21492,9.64132 0.91208,11.78816 -5.51415,23.15591 -16.54364,29.26491 -5.42287,3.0037 -6.04079,3.1005 -21.22012,3.3278 -11.43432,0.1712 -16.93383,-0.1783 -20.47065,-1.3008 z m 650.02424,-3.6444 c -16.07001,-3.2168 -29.82595,-13.91549 -37.24078,-28.96381 l -3.40921,-6.9189 -0.70452,-28.69151 c -1.07069,-43.60289 -1.82822,-54.22501 -3.86836,-54.24227 -0.92453,-0.008 -2.73629,-0.29706 -4.02615,-0.64273 l -2.34519,-0.62849 0,21.23168 0,21.23166 3.21956,3.03875 c 5.70369,5.38338 6.75703,12.43444 2.75293,18.42822 -6.80852,10.19173 -20.93126,8.75485 -25.25611,-2.5696 -2.22558,-5.82756 -0.80843,-11.86657 3.66869,-15.63383 l 3.10723,-2.61457 0,-31.19425 c 0,-17.15683 0.47237,-33.7207 1.0497,-36.80861 1.53608,-8.21593 5.50266,-13.33998 13.22159,-17.07977 l 6.45397,-3.1269 0.6311,-6.77501 c 1.65209,-17.73592 6.12416,-29.21827 14.76578,-37.91228 5.74959,-5.78444 16.5285,-11.43546 25.24922,-13.23732 3.22161,-0.66564 10.54785,-2.75978 16.28054,-4.65363 5.7327,-1.89385 14.05812,-4.01386 18.50096,-4.71113 9.3102,-1.46119 10.09947,-2.76641 4.98418,-8.24236 -7.12516,-7.62749 -4.81399,-18.88418 4.74538,-23.11272 5.5814,-2.46892 10.57871,-1.5079 15.2046,2.92402 6.12596,5.86902 6.03899,14.71674 -0.20346,20.69738 -4.33705,4.15516 -4.07781,6.50001 0.80583,7.28865 7.60222,1.22767 14.44034,2.87583 23.71247,5.71529 5.1594,1.57999 12.19499,3.39623 15.6346,4.03607 8.57527,1.5952 18.27123,6.58123 24.39266,12.54368 9.19765,8.95878 13.83893,21.40255 15.25113,40.88968 l 0.65223,9.00035 4.10509,0.65644 c 5.47363,0.87525 13.81534,8.82484 15.42166,14.69671 0.71428,2.61085 1.14277,16.59274 1.14636,37.4065 l 0.008,33.23727 4.16924,4.52309 c 3.6093,3.91559 4.16923,5.16955 4.16923,9.3365 0,10.98587 -10.06737,17.82661 -20.07884,13.64354 -9.56622,-3.99701 -11.03078,-19.38905 -2.38398,-25.05463 l 2.65855,-1.74228 0,-20.76061 c 0,-11.41833 -0.39573,-21.0052 -0.87954,-21.30418 -0.48371,-0.29896 -2.53446,-0.0865 -4.55712,0.47185 l -3.67767,1.01545 -0.64174,12.2349 c -0.35297,6.72918 -0.92583,21.85018 -1.27304,33.60219 -0.34729,11.75202 -1.26728,24.5403 -2.04442,28.41843 -3.81918,19.05758 -19.72294,35.23459 -39.1388,39.81119 -5.41467,1.2763 -14.5652,1.5554 -48.37029,1.4754 -22.93075,-0.055 -43.56844,-0.4744 -45.86152,-0.9335 z m 82.36435,-62.46003 c 14.32347,-1.18547 21.48377,-3.72467 27.32237,-9.68902 5.2373,-5.35007 8.11473,-11.53434 9.58588,-20.60181 1.43598,-8.85116 1.43598,-76.60549 0,-85.45665 -2.77536,-17.10663 -11.68492,-26.32316 -28.23217,-29.20473 -4.47175,-0.77872 -20.7466,-1.04067 -48.87241,-0.78664 -37.97486,0.34302 -42.67925,0.57344 -47.30919,2.31694 -7.28753,2.74432 -15.32008,10.93804 -18.43858,18.80855 -2.47522,6.24699 -2.47793,6.3035 -2.47793,51.59421 l 0,45.34036 2.49785,6.20111 c 3.41642,8.48159 10.21747,15.54604 17.67823,18.36295 3.23488,1.22137 10.10293,2.57654 15.26236,3.01151 13.60898,1.14726 59.58308,1.21228 72.98359,0.10322 z m -49.01051,-28.56376 c -7.67455,-2.53539 -13.41033,-6.10462 -19.30547,-12.01339 -20.11455,-20.16101 -16.88695,-54.71956 6.56436,-70.28565 24.08003,-15.98341 56.28234,-7.29035 68.0273,18.36406 10.63421,23.22806 0.97844,50.14805 -21.96105,61.22707 -6.63003,3.20207 -8.22741,3.53516 -18.21169,3.79761 -7.02033,0.18451 -12.43905,-0.20619 -15.11345,-1.0897 z m 26.16177,-17.4094 c 5.29072,-2.55674 11.37026,-8.50888 14.31724,-14.01715 1.77308,-3.3142 2.23312,-5.98618 2.24304,-13.02884 0.0106,-7.74103 -0.3382,-9.45181 -2.7651,-13.55001 -7.59515,-12.82538 -21.05884,-18.82032 -33.92528,-15.10583 -13.60198,3.92684 -22.15621,14.89239 -22.17725,28.42872 -0.0342,22.02023 22.76438,36.7172 42.30735,27.27311 z m 31.90714,-64.78023 c -3.76149,-1.00021 -7.50661,-5.98648 -7.51312,-10.00308 -0.008,-3.9789 2.81314,-8.1627 6.7649,-10.03793 4.9322,-2.34051 10.25657,-0.73926 13.11181,3.94329 5.51089,9.03779 -2.02315,18.84736 -12.36359,16.09772 z M 100.12726,983.5887 c -4.567762,-4.56772 -6.265122,-10.07318 -4.380682,-14.20903 1.03088,-2.26255 1.79993,-2.52599 7.373912,-2.52599 l 6.22303,0 -1.59205,3.81026 c -1.03147,2.46867 -1.47149,6.13943 -1.2497,10.42523 0.412,7.96124 -0.53971,8.33437 -6.37451,2.49953 z m 94.79181,-4.49477 c 0,-3.01351 -0.43629,-7.0003 -0.96954,-8.85963 l -0.96955,-3.38062 6.81823,0 6.81823,0 -0.72467,3.90866 c -1.14682,6.18569 -6.75749,13.81054 -10.16232,13.81054 -0.44571,0 -0.81038,-2.46551 -0.81038,-5.47895 z m 148.62331,-3.74884 c -0.30956,-0.50092 0.16564,-4.37528 1.05599,-8.60973 0.89038,-4.23444 2.75302,-14.26553 4.13922,-22.29129 4.54414,-26.30959 6.59558,-37.24812 7.07566,-37.7282 0.5581,-0.5581 75.66514,-0.73012 76.15072,-0.1744 0.18241,0.20875 0.86291,8.11866 1.51225,17.5776 1.20196,17.50926 3.14274,44.26992 3.55283,48.98844 l 0.22647,2.60577 -46.57514,0.27124 c -25.77729,0.15019 -46.82648,-0.1354 -47.138,-0.63943 z m 178.33272,0.21345 c -0.37175,-0.37173 -0.45481,-1.66158 -0.18461,-2.86634 0.4797,-2.13883 1.37687,-13.69436 3.7712,-48.57313 0.64933,-9.45894 1.33654,-17.37555 1.52712,-17.59248 0.44722,-0.50902 75.54205,-0.4045 76.05239,0.10583 0.21194,0.21193 1.11675,4.35039 2.0107,9.19657 0.89396,4.8462 2.04802,10.92192 2.56458,13.50164 0.51658,2.57971 1.72565,9.38077 2.68683,15.11346 0.96119,5.73269 2.63056,14.81956 3.70978,20.19303 1.07918,5.37348 1.70806,10.18113 1.39748,10.68364 -0.64324,1.04076 -92.49898,1.27431 -93.53547,0.23779 z M 118.83065,963.68951 c -19.185272,-0.81243 -26.405802,-2.50497 -35.452742,-8.31038 -10.1492,-6.51273 -16.67071,-16.04311 -20.32096,-29.69659 -2.25797,-8.44568 -3.33712,-61.40101 -1.70153,-83.49483 1.3305,-17.9724 3.52978,-26.44632 8.93882,-34.4414 5.75682,-8.50914 12.69903,-13.54039 25.06964,-18.16884 5.322382,-1.99135 5.743472,-2.36825 4.38591,-3.92578 -5.84294,-6.70359 -3.84823,-19.5373 3.757422,-24.17474 11.57484,-7.0576 25.51555,6.31813 20.0982,19.28367 -0.90632,2.16913 -1.6479,4.23837 -1.64796,4.5983 -7e-5,0.35994 14.18835,0.61229 31.52978,0.56076 l 31.52991,-0.0938 13.36831,-16.58324 c 17.57879,-21.80629 16.50498,-20.05837 15.20808,-24.7553 -1.36617,-4.94791 0.22215,-10.24568 3.95116,-13.17893 4.63008,-3.64205 11.71059,-2.04426 14.45445,3.26178 4.11849,7.96428 -0.251,17.56806 -7.99306,17.56806 -4.02818,0 -4.25708,0.22122 -17.52414,16.9375 -7.39348,9.31562 -13.30104,17.08614 -13.1279,17.26783 0.17313,0.18167 3.35455,0.96632 7.0698,1.74365 18.2788,3.82443 31.64813,16.88034 36.9542,36.08791 1.62396,5.87859 1.83908,11.83896 1.83908,50.95537 0,48.3049 -0.23808,50.66689 -6.31587,62.66085 -3.31947,6.55067 -10.88571,14.81555 -16.6623,18.20087 -9.47636,5.5535 -15.37623,6.79306 -36.95449,7.76413 -22.64045,1.01886 -35.13856,1.00501 -60.45381,-0.0671 z m 81.62957,-18.64033 c 9.20365,-2.97302 16.04424,-9.36898 19.59815,-18.32433 2.48037,-6.25013 2.48184,-6.28076 2.48184,-51.59421 l 0,-45.34037 -2.48592,-6.16921 c -3.12908,-7.76538 -9.12047,-14.32946 -15.63866,-17.1335 -9.07917,-3.90577 -17.66371,-4.49595 -59.2487,-4.07335 -32.77124,0.33302 -40.21139,0.6832 -44.41725,2.09052 -10.621372,3.55403 -17.794092,10.66439 -21.210722,21.02631 -1.47782,4.48184 -1.81051,11.38791 -2.15183,44.66666 -0.26151,25.49682 8.2e-4,42.02102 0.74571,46.90383 2.89175,18.96578 12.73153,27.95779 32.880492,30.04761 4.0129,0.41623 24.18154,0.63036 44.81923,0.47589 35.39941,-0.26498 37.92514,-0.41076 44.62766,-2.57585 z m -61.71668,-25.7065 c -22.96456,-6.17551 -37.60823,-28.59101 -33.67236,-51.54326 6.8088,-39.70586 57.44363,-52.25732 81.75253,-20.26502 11.35379,14.94244 12.1218,36.57958 1.86182,52.45374 -10.60533,16.40853 -31.20723,24.3926 -49.94199,19.35454 z m 20.94907,-16.11115 c 6.24359,-1.73404 13.78392,-8.43375 17.08446,-15.17979 7.25389,-14.82647 1.19763,-32.28212 -13.73514,-39.58806 -5.10905,-2.4996 -6.54829,-2.73169 -14.38831,-2.32021 -7.67246,0.40271 -9.35407,0.86963 -14.09986,3.91499 -9.09366,5.83537 -13.64615,14.34967 -13.62832,25.48828 0.0313,19.57465 19.05453,33.15967 38.76717,27.68479 z m 33.76169,-66.13089 c -4.39292,-2.35302 -5.76084,-4.64988 -5.79823,-9.73573 -0.0626,-8.50309 7.82461,-13.06158 15.62234,-9.02923 1.67433,0.86583 3.52718,2.47663 4.11745,3.57954 4.75874,8.89177 -5.27922,19.8253 -13.94156,15.18542 z m 106.73781,96.41204 c -15.70052,-2.95232 -28.68639,-12.86444 -33.49478,-25.56656 -0.87162,-2.30253 -1.39191,-4.76499 -1.15621,-5.4721 0.64774,-1.94324 68.60505,-1.85652 69.35141,0.0884 0.93207,2.42888 -1.79083,13.29139 -4.76561,19.0117 -4.7695,9.17143 -17.54798,14.26768 -29.93481,11.93848 z m 345.52485,0.10406 c -9.29854,-2.43026 -16.81265,-9.30636 -19.36309,-17.71899 -1.89065,-6.23635 -2.86742,-11.87876 -2.30849,-13.33527 0.42162,-1.09876 7.38639,-1.37419 34.75042,-1.37419 18.82272,0 34.46,0.38329 34.74953,0.85175 0.89454,1.44741 -2.42241,9.66034 -5.80229,14.36675 -8.3116,11.5737 -29.84773,20.39288 -42.02608,17.20995 z m -286.11333,-58.26477 0,-20.62474 -5.30496,-5.17237 c -9.15396,-8.92514 -16.18394,-20.0735 -19.69315,-31.23003 -1.71679,-5.45801 -3.14419,-6.94743 -3.14419,-3.28079 0,5.71071 3.10067,68.01304 3.59495,72.23392 0.33659,2.87454 0.0393,4.71828 -0.88447,5.48492 -0.97667,0.81059 -13.00752,1.07337 -40.3558,0.88147 l -38.96427,-0.27339 0.0963,-2.60578 c 0.14869,-4.02765 2.4395,-27.698 3.58107,-37.00191 0.5627,-4.58613 1.74029,-15.37401 2.61684,-23.97306 3.0022,-29.4514 3.91818,-35.9588 5.072,-36.03323 0.62788,-0.0404 4.75297,-0.012 9.16685,0.0649 12.84783,0.22167 12.29971,1.16581 12.29971,-21.18672 0,-20.05163 -0.33003,-21.53908 -4.77914,-21.53908 -9.76329,0 -22.20933,-9.42947 -25.80053,-19.54722 -1.62517,-4.57868 -1.86044,-7.89761 -1.54881,-21.84977 0.32218,-14.4237 0.64378,-16.96485 2.60966,-20.62029 4.63211,-8.61313 14.11628,-15.27517 23.49672,-16.50498 2.70718,-0.35491 9.80918,-2.2977 15.78224,-4.31728 12.7762,-4.31982 17.0757,-4.50581 24.11485,-1.04313 2.86635,1.41 5.51572,2.56793 5.8875,2.57318 0.37176,0.005 0.98473,-3.391 1.36215,-7.54721 2.71132,-29.8573 7.78798,-44.906 19.90792,-59.01289 7.8214,-9.10366 14.72797,-14.47793 24.9578,-19.42061 21.40508,-10.34213 32.45767,-11.4793 111.00572,-11.42106 66.09647,0.049 71.97412,0.47856 89.85861,6.56713 13.01081,4.42941 19.92862,8.76707 30.11174,18.88091 16.41927,16.30758 22.56239,31.97275 25.41699,64.81411 l 0.69225,7.96428 5.91498,-3.00012 c 7.72801,-3.91974 11.61556,-3.81863 24.8183,0.64541 5.97305,2.01958 13.07506,3.96237 15.78222,4.31728 9.38045,1.22983 18.86462,7.89185 23.49674,16.50498 1.96588,3.65544 2.28747,6.19659 2.60965,20.62029 0.31096,13.92279 0.0738,17.28668 -1.54336,21.88844 -3.53288,10.05335 -16.04026,19.50855 -25.80597,19.50855 -4.44911,0 -4.77916,1.48745 -4.77916,21.53908 0,22.52656 -0.61388,21.53772 13.07712,21.06452 4.7994,-0.16588 8.9428,-0.0849 9.20758,0.17978 0.41425,0.41428 4.19648,34.09201 9.46973,84.32075 0.80919,7.70759 1.23788,14.39137 0.95266,14.85287 -0.28521,0.4615 -18.02241,0.83909 -39.41596,0.83909 -42.34377,0 -41.73776,0.087 -40.73499,-5.84405 0.28043,-1.65856 1.22665,-18.72833 2.10271,-37.93285 0.87607,-19.20451 1.82078,-37.26249 2.09929,-40.12883 0.48425,-4.9831 0.39355,-4.85299 -2.06898,2.96785 -5.01141,15.91601 -10.06595,24.69516 -20.53213,35.6619 l -6.02984,6.31821 -0.28378,20.26062 -0.28376,20.26061 -25.76166,0.27872 -25.76165,0.27869 -0.29603,-11.02276 -0.29602,-11.02275 -67.22882,-0.014 -67.22881,-0.0141 -0.29585,11.01865 -0.29583,11.01861 -26.02243,0 -26.02241,0 0,-20.62475 z m 181.74502,-30.50834 c 22.51446,-1.70388 34.34647,-6.2663 45.0427,-17.3684 7.42305,-7.70471 11.40128,-16.85601 14.17277,-32.60227 2.01079,-11.42423 1.96622,-130.06369 -0.0539,-143.31725 -4.05336,-26.59423 -16.67591,-41.36349 -40.62299,-47.53172 -11.37525,-2.93001 -33.00597,-4.00809 -80.41828,-4.00809 -45.08514,0 -69.02558,1.07188 -79.8119,3.57341 -21.94231,5.08875 -35.48989,18.96097 -40.73637,41.71256 -1.76605,7.6585 -1.92284,13.99055 -1.92284,77.6519 0,62.58137 0.17983,70.12329 1.85157,77.65188 3.81719,17.19044 12.39629,29.39244 25.48319,36.2446 9.55166,5.00114 16.41703,6.80719 29.99214,7.88994 16.52845,1.31827 109.9658,1.39437 127.02391,0.10342 z m -75.95084,-45.21217 c -25.33415,-5.03533 -44.80992,-19.6269 -55.73877,-41.7604 -5.35952,-10.85429 -7.38122,-18.5812 -8.06623,-30.82939 -0.79556,-14.22451 1.44299,-24.7089 8.15867,-38.21177 13.53812,-27.22038 39.17436,-43.00686 69.84044,-43.00686 12.37417,0 22.31999,2.31045 33.75201,7.84077 16.46204,7.96358 28.71905,20.21022 36.48815,36.45729 5.41045,11.31449 7.11697,19.16343 7.13855,32.83268 0.0351,22.19537 -6.82697,38.70533 -22.78054,54.80993 -7.96391,8.03929 -10.87635,10.20302 -19.28269,14.32559 -5.44605,2.67082 -12.71615,5.57849 -16.15576,6.46153 -9.00322,2.31133 -24.61675,2.81718 -33.35383,1.08063 z m 26.02125,-28.24469 c 25.81232,-6.72328 42.45969,-33.20984 36.59723,-58.22752 -4.05885,-17.32086 -15.87381,-30.70468 -32.40144,-36.70389 -9.16142,-3.32541 -22.70394,-3.46308 -32.01772,-0.3255 -35.39259,11.92291 -45.61249,56.77651 -18.85708,82.76103 12.30142,11.94697 30.29414,16.76358 46.67901,12.49588 z M 550.89781,659.1397 c -11.13386,-6.46815 -12.8944,-19.981 -3.78948,-29.08593 9.18394,-9.18394 23.6699,-6.79525 29.29818,4.83118 3.97556,8.21241 1.66705,17.34896 -5.82794,23.06568 -5.30305,4.04482 -13.87368,4.56264 -19.68076,1.18907 z M 328.4582,773.50568 c -0.16878,-10.89211 -0.43528,-19.93434 -0.59224,-20.09386 -0.47252,-0.48032 -10.86887,4.97223 -11.53469,6.04956 -1.25221,2.02611 -0.68277,31.33518 0.63976,32.92875 0.88994,1.07232 2.86819,1.44423 6.53518,1.2286 l 5.25887,-0.30921 -0.30688,-19.80384 z m 313.58212,18.79596 c 1.728,-2.08214 1.74485,-31.32027 0.0192,-33.39949 -0.67167,-0.80934 -2.23422,-1.78572 -3.4723,-2.16977 -1.23809,-0.38405 -3.47556,-1.5602 -4.97214,-2.61367 l -2.72109,-1.9154 -0.54271,20.03195 c -0.29849,11.01757 -0.33618,20.38373 -0.0838,20.81367 0.85702,1.45972 10.44627,0.85101 11.77275,-0.74729 z"
       id="path4147"
       inkscape:connector-curvature="0" />
  </g>
</svg>
